<svg width="64" height="64" viewBox="0 0 64 64" fill="none" xmlns="http://www.w3.org/2000/svg">
<g clip-path="url(#clip0_4017_35700)">
<path fill-rule="evenodd" clip-rule="evenodd" d="M63.8227 19.9641C63.8227 19.2018 63.8227 18.4394 63.8192 17.6771C63.8156 17.0353 63.8085 16.3936 63.7908 15.7518C63.7536 14.353 63.6703 12.9436 63.4221 11.5608C63.1703 10.1567 62.7572 8.85008 62.1084 7.57363C61.4701 6.32022 60.6369 5.17496 59.6423 4.18039C58.6478 3.18582 57.5007 2.35258 56.2473 1.71435C54.9726 1.06548 53.666 0.654183 52.2637 0.400665C50.8809 0.152465 49.4697 0.0691413 48.0709 0.0319114C47.4291 0.0141828 46.7874 0.00709141 46.1456 0.00354571C45.3833 0 44.6209 0 43.8586 0H19.9641C19.2018 0 18.4394 0 17.6771 0.00354571C17.0353 0.00709141 16.3936 0.0141828 15.7518 0.0319114C14.353 0.0709141 12.9418 0.152465 11.559 0.402438C10.1549 0.654183 8.85008 1.06726 7.5754 1.71612C6.32199 2.35435 5.17496 3.18759 4.18039 4.18216C3.18582 5.17673 2.35258 6.32199 1.71435 7.5754C1.06548 8.85186 0.65241 10.1584 0.400665 11.5625C0.152465 12.9454 0.0691413 14.3566 0.0319114 15.7536C0.0141828 16.3953 0.00709141 17.0371 0.00354571 17.6789C0 18.4394 0 19.2018 0 19.9641V43.8568C0 44.6192 0 45.3815 0.00354571 46.1438C0.00709141 46.7856 0.0141828 47.4274 0.0319114 48.0691C0.0691413 49.4679 0.152465 50.8773 0.400665 52.2602C0.65241 53.6643 1.06548 54.9709 1.71435 56.2473C2.35258 57.5007 3.18582 58.646 4.18039 59.6406C5.17496 60.6351 6.32199 61.4684 7.5754 62.1066C8.85008 62.7555 10.1567 63.1668 11.559 63.4203C12.9418 63.6685 14.353 63.7518 15.7518 63.789C16.3936 63.8068 17.0353 63.8139 17.6771 63.8174C18.4394 63.8227 19.2018 63.8209 19.9641 63.8209H43.8568C44.6192 63.8209 45.3815 63.8209 46.1438 63.8174C46.7856 63.8139 47.4274 63.8068 48.0691 63.789C49.4679 63.7518 50.8791 63.6685 52.2619 63.4203C53.666 63.1685 54.9709 62.7555 56.2455 62.1066C57.499 61.4684 58.646 60.6351 59.6406 59.6406C60.6351 58.646 61.4684 57.5007 62.1066 56.2473C62.7555 54.9709 63.1685 53.6643 63.4203 52.2602C63.6685 50.8773 63.7518 49.4662 63.789 48.0691C63.8068 47.4274 63.8139 46.7856 63.8174 46.1438C63.8227 45.3815 63.8209 44.6192 63.8209 43.8568V19.9641H63.8227Z" fill="url(#paint0_linear_4017_35700)"/>
<path fill-rule="evenodd" clip-rule="evenodd" d="M45.1189 9.75048C44.9647 9.76466 43.5942 10.0075 43.4294 10.0412L24.4598 13.8688L24.4528 13.8706C23.9581 13.9752 23.5699 14.1507 23.2703 14.4024C22.9086 14.7056 22.7083 15.1346 22.632 15.6346C22.6161 15.7409 22.5895 15.9572 22.5895 16.2763C22.5895 16.2763 22.5895 35.6572 22.5895 40.0184C22.5895 40.5733 22.5452 41.1122 22.1693 41.5714C21.7935 42.0306 21.329 42.1689 20.7847 42.2788C20.3716 42.3621 19.9586 42.4454 19.5455 42.5288C17.9783 42.8443 16.9589 43.0588 16.0352 43.417C15.1524 43.7591 14.4911 44.1952 13.9646 44.7484C12.9203 45.8422 12.4966 47.3261 12.642 48.716C12.7661 49.9021 13.2997 51.0367 14.2163 51.8752C14.835 52.4425 15.608 52.8734 16.5192 53.056C17.4642 53.2457 18.4711 53.1801 19.9426 52.8822C20.7262 52.7244 21.4602 52.478 22.1587 52.0649C22.8501 51.6572 23.4422 51.1129 23.9049 50.4499C24.3694 49.785 24.669 49.0458 24.8339 48.2604C25.0041 47.4502 25.0449 46.718 25.0449 45.9096V25.3179C25.0449 24.2152 25.3569 23.9244 26.2469 23.7081C26.2469 23.7081 42.0146 20.5277 42.7504 20.384C43.7769 20.1873 44.2608 20.4798 44.2608 21.5559V35.6129C44.2608 36.1695 44.2555 36.7333 43.8761 37.1942C43.5003 37.6534 43.0358 37.7917 42.4915 37.9016C42.0785 37.9849 41.6654 38.0683 41.2523 38.1516C39.6851 38.4671 38.6657 38.6817 37.7421 39.0398C36.8592 39.3819 36.1979 39.8181 35.6714 40.3712C34.6272 41.465 34.1662 42.9489 34.3116 44.3388C34.4357 45.5249 35.0065 46.6595 35.9231 47.4981C36.5418 48.0654 37.3148 48.4838 38.226 48.6681C39.171 48.8578 40.178 48.7905 41.6494 48.4944C42.433 48.3366 43.167 48.1008 43.8655 47.6878C44.5569 47.28 45.149 46.7357 45.6118 46.0727C46.0762 45.4079 46.3759 44.6686 46.5407 43.8832C46.7109 43.073 46.718 42.3408 46.718 41.5324V11.4276C46.7216 10.3355 46.1454 9.66183 45.1189 9.75048Z" fill="white"/>
</g>
<defs>
<linearGradient id="paint0_linear_4017_35700" x1="31.9114" y1="63.5753" x2="31.9114" y2="1.37548" gradientUnits="userSpaceOnUse">
<stop stop-color="#FA233B"/>
<stop offset="1" stop-color="#FB5C74"/>
</linearGradient>
<clipPath id="clip0_4017_35700">
<rect width="64" height="64" fill="white"/>
</clipPath>
</defs>
</svg>
