<svg width="64" height="64" viewBox="0 0 64 64" fill="none" xmlns="http://www.w3.org/2000/svg">
<g clip-path="url(#clip0_4017_35689)">
<path d="M9.45563 9.36168L18.9261 9.36168L18.9261 24.0468C18.9261 27.5486 18.9892 32.0566 23.8518 32.0566C28.7843 32.0566 29.539 28.2412 29.539 24.3018L29.539 9.36265L39.0096 9.36265L39.0096 39.5613L29.9179 39.5613L29.9179 35.4343L29.7906 35.4343C28.8807 36.9747 27.5659 38.2419 25.9863 39.1009C24.4066 39.9599 22.6212 40.3786 20.8202 40.3124C11.2214 40.3124 9.45165 34.061 9.45165 25.9281L9.45563 9.36168ZM49.6955 43.6892C50.7824 43.689 51.8451 44.008 52.749 44.6058C53.6529 45.2036 54.3574 46.0533 54.7736 47.0476C55.1897 48.0419 55.2988 49.136 55.0869 50.1916C54.875 51.2473 54.3518 52.217 53.5833 52.9782C52.8148 53.7393 51.8356 54.2578 50.7696 54.468C49.7035 54.6781 48.5985 54.5705 47.5942 54.1588C46.5899 53.7472 45.7314 53.0498 45.1274 52.155C44.5233 51.2603 44.2008 50.2082 44.2006 49.1319C44.2004 48.4173 44.3425 47.7097 44.6186 47.0494C44.8946 46.3891 45.2993 45.7892 45.8096 45.2838C46.3198 44.7784 46.9256 44.3774 47.5924 44.1038C48.2591 43.8303 48.9737 43.6894 49.6955 43.6892ZM44.9602 9.36168L54.4406 9.36168L54.4406 39.5613L44.9602 39.5613L44.9602 9.36168ZM4.73416 63.2808L59.1995 63.2808C60.4357 63.2947 61.6269 62.822 62.5113 61.9666C63.3957 61.1112 63.9009 59.9432 63.916 58.7192L63.916 4.56658C63.9014 3.34196 63.3965 2.17314 62.5122 1.3169C61.6278 0.460664 60.4363 -0.012969 59.1995 5.92928e-05L4.73417 5.45313e-05C3.49489 -0.0153348 2.30007 0.456946 1.41222 1.31316C0.524359 2.16938 0.016076 3.33952 -0.00108012 4.56658L-0.00108486 58.7231C0.0165863 59.9496 0.525226 61.1189 1.41311 61.9742C2.301 62.8296 3.4955 63.3009 4.73416 63.2847" fill="#0A66C2"/>
</g>
<defs>
<clipPath id="clip0_4017_35689">
<rect width="64" height="63.2441" fill="white"/>
</clipPath>
</defs>
</svg>
