<svg width="64" height="64" viewBox="0 0 64 64" fill="none" xmlns="http://www.w3.org/2000/svg">
<g clip-path="url(#clip0_4017_35693)">
<path d="M50.6437 28.4235C40.4842 22.3901 23.7263 21.8354 14.0279 24.7789C12.4704 25.2516 10.8234 24.372 10.3516 22.815C9.87952 21.2565 10.7578 19.6107 12.3164 19.1372C23.4496 15.7579 41.9569 16.4105 53.6527 23.3532C55.0535 24.185 55.513 25.9941 54.6828 27.3926C53.8518 28.7934 52.0411 29.2551 50.6437 28.4235ZM50.311 37.3598C49.5981 38.5164 48.0859 38.8792 46.9309 38.169C38.4609 32.9626 25.5455 31.4544 15.5249 34.4961C14.2255 34.8888 12.8529 34.1561 12.4582 32.8591C12.0667 31.5596 12.7997 30.1896 14.0968 29.7944C25.5439 26.3208 39.7744 28.0033 49.5025 33.9815C50.6576 34.693 51.0212 36.2059 50.311 37.3598ZM46.4544 45.942C45.888 46.8709 44.6787 47.1618 43.7533 46.5957C36.352 42.0723 27.0364 41.0508 16.0655 43.5566C15.0083 43.799 13.9546 43.1365 13.7135 42.0793C13.4714 41.0226 14.1314 39.9687 15.1909 39.7275C27.1966 36.9829 37.4952 38.1641 45.8025 43.2404C46.7288 43.8062 47.0204 45.0161 46.4544 45.942ZM32.0001 0.482568C14.5936 0.482568 0.482422 14.5934 0.482422 31.9996C0.482422 49.4079 14.5936 63.5176 32.0001 63.5176C49.4069 63.5176 63.5174 49.4079 63.5174 31.9996C63.5174 14.5934 49.4069 0.482568 32.0001 0.482568Z" fill="#1ED760"/>
</g>
<defs>
<clipPath id="clip0_4017_35693">
<rect width="64" height="64" fill="white"/>
</clipPath>
</defs>
</svg>
