<svg width="64" height="64" viewBox="0 0 64 64" fill="none" xmlns="http://www.w3.org/2000/svg">
<g clip-path="url(#clip0_4017_35650)">
<path d="M56 0H8C3.58172 0 0 3.58172 0 8V56C0 60.4183 3.58172 64 8 64H56C60.4183 64 64 60.4183 64 56V8C64 3.58172 60.4183 0 56 0Z" fill="black"/>
<path d="M27.6321 26.5904V24.8496C27.0353 24.768 26.4289 24.7168 25.8097 24.7168C18.3537 24.7168 12.2881 30.7824 12.2881 38.2384C12.2881 42.8128 14.5745 46.8608 18.0609 49.3088C15.8097 46.8928 14.4289 43.656 14.4289 40.1024C14.4289 32.7536 20.3233 26.76 27.6321 26.5888V26.5904Z" fill="#25F4EE"/>
<path d="M27.9521 46.2802C31.2785 46.2802 33.9921 43.6338 34.1153 40.3378L34.1265 10.8962H39.5057C39.3937 10.2914 39.3329 9.66903 39.3329 9.03223H31.9857L31.9745 38.4738C31.8513 41.7714 29.1377 44.4162 25.8113 44.4162C24.7777 44.4162 23.8033 44.157 22.9473 43.7074C24.0705 45.2626 25.8929 46.2818 27.9537 46.2818L27.9521 46.2802Z" fill="#25F4EE"/>
<path d="M49.5518 20.8884V19.2516C47.5006 19.2516 45.5886 18.642 43.9854 17.5972C45.4126 19.2356 47.3518 20.418 49.5518 20.8884Z" fill="#25F4EE"/>
<path d="M43.9875 17.5968C42.4243 15.8016 41.4739 13.4576 41.4739 10.896H39.5059C40.0243 13.6944 41.6851 16.096 43.9875 17.5968Z" fill="#FE2C55"/>
<path d="M25.8098 32.0657C22.405 32.0657 19.6338 34.8353 19.6338 38.2417C19.6338 40.6129 20.9794 42.6737 22.9442 43.7073C22.2114 42.6929 21.7746 41.4497 21.7746 40.1057C21.7746 36.7009 24.5458 33.9297 27.9506 33.9297C28.5858 33.9297 29.1954 34.0353 29.773 34.2145V26.7153C29.1762 26.6337 28.5698 26.5825 27.9506 26.5825C27.8434 26.5825 27.7378 26.5889 27.6306 26.5905V32.3505C27.0546 32.1697 26.4434 32.0657 25.8082 32.0657H25.8098Z" fill="#FE2C55"/>
<path d="M49.5518 20.8882V26.5986C45.7422 26.5986 42.2125 25.3794 39.3309 23.3122V38.2418C39.3309 45.6978 33.2653 51.7634 25.8093 51.7634C22.9277 51.7634 20.2557 50.8546 18.0605 49.3122C20.5309 51.9634 24.0493 53.6274 27.9517 53.6274C35.4077 53.6274 41.4733 47.5618 41.4733 40.1058V25.1762C44.3549 27.245 47.8845 28.4626 51.6941 28.4626V21.1154C50.9597 21.1154 50.2429 21.0354 49.5533 20.8882H49.5518Z" fill="#FE2C55"/>
<path d="M39.3311 38.2401V23.3105C42.2127 25.3793 45.7423 26.5969 49.5519 26.5969V20.8865C47.3519 20.4161 45.4127 19.2337 43.9855 17.5953C41.6831 16.0945 40.0223 13.6929 39.5039 10.8945H34.1247L34.1135 40.3361C33.9903 43.6337 31.2767 46.2785 27.9503 46.2785C25.8895 46.2785 24.0671 45.2609 22.9439 43.7041C20.9775 42.6689 19.6335 40.6097 19.6335 38.2385C19.6335 34.8337 22.4047 32.0625 25.8095 32.0625C26.4447 32.0625 27.0543 32.1681 27.6319 32.3473V26.5873C20.3231 26.7585 14.4287 32.7521 14.4287 40.1009C14.4287 43.6561 15.8095 46.8913 18.0607 49.3073C20.2575 50.8497 22.9279 51.7585 25.8095 51.7585C33.2655 51.7585 39.3311 45.6929 39.3311 38.2369V38.2401Z" fill="white"/>
</g>
<defs>
<clipPath id="clip0_4017_35650">
<rect width="64" height="64" fill="white"/>
</clipPath>
</defs>
</svg>
